osimModel_states
nRows=20
nColumns=17

# SIMM Motion File Header:
name osimModel_states
datacolumns 17
datarows 20
otherdata 1
range 0.00000000 0.09715008
endheader
time	blockToGround_xRotation	blockToGround_yRotation	blockToGround_zRotation	blockToGround_xTranslation	blockToGround_yTranslation	blockToGround_zTranslation	blockToGround_xRotation_u	blockToGround_yRotation_u	blockToGround_zRotation_u	blockToGround_xTranslation_u	blockToGround_yTranslation_u	blockToGround_zTranslation_u	muscle1.activation	muscle1.fiber_length	muscle2.activation	muscle2.fiber_length
      0.00000000	      0.00000000	      0.00000000	      0.00000000	      0.00000000	      0.00000000	      0.00000000	      0.00000000	      0.00000000	      0.00000000	      0.00000000	      0.00000000	      0.47123890	      0.01000000	      0.09962248	      0.01000000	      0.09962248
      0.00175078	      0.00037943	     -0.00000003	     -0.00000012	     -0.00000000	     -0.00001138	      0.00082348	      0.62417383	     -0.00013316	     -0.00053132	      0.00000001	     -0.01111864	      0.46877512	      0.00957175	      0.09989802	      0.00963004	      0.09948192
      0.00350155	      0.00256978	     -0.00000079	     -0.00000317	      0.00000000	     -0.00003464	      0.00163996	      1.94262216	     -0.00086968	     -0.00347728	      0.00000006	     -0.01458712	      0.46367246	      0.00916183	      0.10059555	      0.00960483	      0.09931412
      0.00709956	      0.01510033	     -0.00001052	     -0.00004204	      0.00000000	     -0.00008557	      0.00328535	      4.97525970	     -0.00518508	     -0.02072037	      0.00000064	     -0.01268072	      0.45073528	      0.00837370	      0.10221266	      0.01375960	      0.09891615
      0.01069757	      0.03747728	     -0.00004240	     -0.00016913	      0.00000001	     -0.00012309	      0.00488270	      7.29679000	     -0.01298572	     -0.05189022	      0.00000249	     -0.00818493	      0.43718544	      0.00765337	      0.10385975	      0.02368406	      0.09829451
      0.01614216	      0.08255319	     -0.00015428	     -0.00061452	      0.00000003	     -0.00015192	      0.00720850	      8.87794739	     -0.02826440	     -0.11314358	      0.00000844	     -0.00291501	      0.41743493	      0.00667942	      0.10616178	      0.04685636	      0.09672895
      0.02158675	      0.13066658	     -0.00035035	     -0.00139461	      0.00000010	     -0.00015865	      0.00942899	      8.52099724	     -0.04263450	     -0.17134672	      0.00001783	      0.00006807	      0.39789075	      0.00582941	      0.10866594	      0.07671063	      0.09440222
      0.02613837	      0.16675779	     -0.00056654	     -0.00225591	      0.00000021	     -0.00015513	      0.01120528	      7.22206546	     -0.05056772	     -0.20421825	      0.00002711	      0.00131859	      0.38287603	      0.00520243	      0.11015056	      0.10561583	      0.09194985
      0.03069000	      0.19565415	     -0.00080772	     -0.00321983	      0.00000035	     -0.00014774	      0.01291265	      5.41996727	     -0.05310063	     -0.21586401	      0.00003620	      0.00182285	      0.36720801	      0.00464288	      0.11208205	      0.13696902	      0.08910348
      0.03524162	      0.21584837	     -0.00104766	     -0.00418422	      0.00000053	     -0.00013924	      0.01455001	      3.44877278	     -0.04987008	     -0.20452529	      0.00004373	      0.00185133	      0.35234579	      0.00414352	      0.11361210	      0.17076802	      0.08591689
      0.04023876	      0.22784588	     -0.00127920	     -0.00512419	      0.00000077	     -0.00013061	      0.01627247	      1.39328080	     -0.04043487	     -0.16836682	      0.00004889	      0.00156200	      0.33733671	      0.00365690	      0.11542275	      0.20969182	      0.08271627
      0.04523591	      0.23033732	     -0.00145084	     -0.00583527	      0.00000102	     -0.00012384	      0.01793321	     -0.32488894	     -0.02656763	     -0.11424323	      0.00005009	      0.00113647	      0.32791504	      0.00322743	      0.11705914	      0.24836391	      0.08063935
      0.05293918	      0.22049215	     -0.00156310	     -0.00634311	      0.00000138	     -0.00011775	      0.02042065	     -2.02381332	     -0.00194958	     -0.01719943	      0.00004413	      0.00051096	      0.31845700	      0.00266208	      0.11966984	      0.30302048	      0.07781440
      0.05939971	      0.20532363	     -0.00151349	     -0.00621021	      0.00000164	     -0.00011585	      0.02246459	     -2.53969353	      0.01641810	      0.05549244	      0.00003376	      0.00014406	      0.31509743	      0.00226504	      0.12150419	      0.34397485	      0.07559384
      0.06586024	      0.18911131	     -0.00136146	     -0.00567798	      0.00000182	     -0.00011548	      0.02449512	     -2.38514652	      0.02892610	      0.10478394	      0.00002146	      0.00002843	      0.31325064	      0.00192722	      0.12391537	      0.37976080	      0.07343315
      0.07152056	      0.17689912	     -0.00117920	     -0.00502129	      0.00000191	     -0.00011517	      0.02627179	     -1.88883756	      0.03376073	      0.12358323	      0.00001153	      0.00011471	      0.31487393	      0.00167292	      0.12534333	      0.40775070	      0.07157058
      0.07718088	      0.16801276	     -0.00098556	     -0.00432210	      0.00000195	     -0.00011397	      0.02805923	     -1.23798213	      0.03306635	      0.12027954	      0.00000395	      0.00032823	      0.31676850	      0.00145218	      0.12725404	      0.43205765	      0.06972332
      0.08426058	      0.16218264	     -0.00077060	     -0.00355838	      0.00000196	     -0.00011042	      0.03031545	     -0.42506078	      0.02614035	      0.09208047	     -0.00000090	      0.00068710	      0.32103020	      0.00121661	      0.12935988	      0.45842103	      0.06741632
      0.09134027	      0.16155014	     -0.00062036	     -0.00305334	      0.00000195	     -0.00010429	      0.03260456	      0.20487472	      0.01559473	      0.04948983	     -0.00000066	      0.00103105	      0.32510117	      0.00101926	      0.13195093	      0.48031464	      0.06510215
      0.09715008	      0.16376111	     -0.00055558	     -0.00287215	      0.00000195	     -0.00009760	      0.03450706	      0.52471677	      0.00664961	      0.01342402	      0.00000243	      0.00125624	      0.32996210	      0.00088147	      0.13353182	      0.49601620	      0.06318828
